<svg xmlns="http://www.w3.org/2000/svg" xmlns:xlink="http://www.w3.org/1999/xlink" viewBox="0 0 736.47 477.12"><defs><style>.cls-1{fill:#1d1d1b;}.cls-2{fill:url(#linear-gradient);}.cls-3{fill:url(#linear-gradient-2);}.cls-4{fill:url(#linear-gradient-3);}.cls-5{fill:url(#linear-gradient-4);}.cls-6{fill:url(#linear-gradient-5);}.cls-7{fill:url(#linear-gradient-6);}.cls-8{fill:url(#linear-gradient-7);}.cls-9{fill:url(#linear-gradient-8);}.cls-10{fill:url(#linear-gradient-9);}.cls-11{fill:url(#linear-gradient-10);}.cls-12{fill:url(#linear-gradient-11);}.cls-13{fill:url(#linear-gradient-12);}.cls-14{fill:url(#linear-gradient-13);}.cls-15{fill:url(#linear-gradient-14);}.cls-16{fill:url(#linear-gradient-15);}.cls-17{fill:url(#linear-gradient-16);}.cls-18{fill:#00843b;}.cls-18,.cls-19,.cls-20{fill-rule:evenodd;}.cls-19{fill:#ffd100;}.cls-20{fill:#bc1b1e;}</style><linearGradient id="linear-gradient" x1="-90.24" y1="394.46" x2="749.2" y2="394.46" gradientUnits="userSpaceOnUse"><stop offset="0" stop-color="#cb9f3a"/><stop offset="0.5" stop-color="#e9cf7f"/><stop offset="1" stop-color="#f6cc41"/></linearGradient><linearGradient id="linear-gradient-2" x1="-90.24" y1="422.89" x2="749.2" y2="422.89" xlink:href="#linear-gradient"/><linearGradient id="linear-gradient-3" x1="-90.24" y1="432.85" x2="749.2" y2="432.85" xlink:href="#linear-gradient"/><linearGradient id="linear-gradient-4" x1="-90.24" y1="432.99" x2="749.2" y2="432.99" xlink:href="#linear-gradient"/><linearGradient id="linear-gradient-5" x1="-90.24" y1="432.78" x2="749.2" y2="432.78" xlink:href="#linear-gradient"/><linearGradient id="linear-gradient-6" x1="-90.24" y1="441" x2="749.2" y2="441" xlink:href="#linear-gradient"/><linearGradient id="linear-gradient-7" x1="-90.24" y1="432.97" x2="749.2" y2="432.97" xlink:href="#linear-gradient"/><linearGradient id="linear-gradient-8" x1="-90.24" y1="407.44" x2="749.2" y2="407.44" xlink:href="#linear-gradient"/><linearGradient id="linear-gradient-9" x1="-90.24" y1="423.05" x2="749.2" y2="423.05" xlink:href="#linear-gradient"/><linearGradient id="linear-gradient-10" x1="-90.24" y1="423.76" x2="749.2" y2="423.76" xlink:href="#linear-gradient"/><linearGradient id="linear-gradient-11" x1="-90.24" y1="423.52" x2="749.2" y2="423.52" xlink:href="#linear-gradient"/><linearGradient id="linear-gradient-12" x1="-90.24" y1="423.61" x2="749.2" y2="423.61" xlink:href="#linear-gradient"/><linearGradient id="linear-gradient-13" x1="-90.24" y1="269.61" x2="749.2" y2="269.61" xlink:href="#linear-gradient"/><linearGradient id="linear-gradient-14" x1="-90.24" y1="297.59" x2="749.2" y2="297.59" xlink:href="#linear-gradient"/><linearGradient id="linear-gradient-15" x1="-90.24" y1="222.62" x2="749.2" y2="222.62" xlink:href="#linear-gradient"/><linearGradient id="linear-gradient-16" x1="-90.24" y1="269.86" x2="749.2" y2="269.86" xlink:href="#linear-gradient"/></defs><g id="Layer_2" data-name="Layer 2"><g id="Layer_1-2" data-name="Layer 1"><path class="cls-1" d="M708.35,394.49c0,18.57,28.12,18.56,28.12,0S708.35,375.92,708.35,394.49Z"/><path class="cls-1" d="M80.46,445.1l-.95-.51c-2.09-1.1-3,.11-2.09-29.26.12-3.75.11-11.14.89-12.48.93-1,6.17-1.88,6.17-7.87,0-12.25-26.25-10.3-34.29-8.36a10,10,0,0,0-7.24,6c-1.45-4.76-7.85-7.6-17.18-7.6a67.1,67.1,0,0,0-13.11,1.45c-8,1.59-12,4.86-12,9.73,0,5.35,5.53,5.92,6.55,7.45,1.15,3.53.76,30.45-.07,36.92-.33,2.83-.49,2.84-1.49,3.36C2.86,445.34,0,446.82,0,451.15c0,6.24,7.22,9.68,20.34,9.68,8,0,20.07-.87,21.84-8.62.34,2.85,2.39,5.3,5.56,6.62,6.75,2.79,23.35,2.49,29.72.06,3.74-1.43,6.1-4.21,6.33-7.45A6.69,6.69,0,0,0,80.46,445.1Zm-37.8-47.87a8.07,8.07,0,0,0,4.51,4.83c.84.43,1.79.91,1.79,10.35v.21a84.36,84.36,0,0,1-12.43.05,7.4,7.4,0,0,1-.17-1.95c0-6.16,0-7.57,1.6-8.54A11.1,11.1,0,0,0,42.66,397.23Zm-.35,52.55a7.18,7.18,0,0,0-3.52-5.37c-1.76-1.07-2.73-1.67-2.73-7.71A31,31,0,0,1,36.4,431a49,49,0,0,1,12.46-.44c.39,2.21-.11,8.36-.72,11.18-.48,2.06-.48,2.06-1.57,2.66A8.33,8.33,0,0,0,42.31,449.78Z"/><path class="cls-1" d="M115.66,404.61c-43.25,0-45.17,56.52-4.57,56.52a37.58,37.58,0,0,0,23.32-7.78C156.19,436.71,143.28,404.61,115.66,404.61Zm-4.57,17c1.22,0,6.16,4.88,6.16,18.94,0,4.36-3,3.08-4,.52C108.17,427.83,110.07,422,111.09,421.58Z"/><path class="cls-1" d="M209.91,443.14c-1-17.83-1.52-25.32-2.42-27.62-4.33-11-22.5-15.2-31.74-4.1,0-3.94-2.62-6.3-6.93-6.3s-10.19,2.15-15.9,4.18c-5.4,1.92-10.5,3.75-10.5,9,0,4.72,4.62,6,5.39,7.06.68,2.67,0,18.24-.61,20.39-.08.27-.22.41-1,.93-5,3.55-4.47,10,3.37,12.75s25,2.45,28.94-4.18c2,5.51,10.62,5.51,15,5.51,7.08,0,11.95-.46,14.88-1.43,6.49-2.13,7.12-8.49,4.36-11.44S210,444.93,209.91,443.14Zm-31.06,6.66a8.7,8.7,0,0,0-.59-1.12c-3-4.5-2.25-2.91-2.35-12.48-.11-9.8.27-11.11,2.93-11.11.41,0,1.77.08,2.25,1.07,2.18,4.5,1.43,19.41-.35,21.34A14.83,14.83,0,0,0,178.85,449.8Z"/><path class="cls-1" d="M302.39,412.52c-.57-3.7-3.85-7.56-15.11-7.56-8.44,0-23.76.65-24.94,9-18.94-21.45-56.15-3.58-50.42,24.92,2.72,13.53,13.84,22.28,28.33,22.28s31.35-10.84,23.69-20.67c-2.83-3.62-5.62-3.15-9.23-.93-9.5,5.85-15,.35-16.11-2,21.88,0,24.47,1.4,27.52-3.3,2.25-3.46,2.52-8.05.83-12.69,4.05,1.82,2.25.2,13.42,23.61,5.09,10.66,6.95,14.37,5.37,15.9-.08-.27-.16-.6-.23-.87-3.54-14.39-22-10.79-22,2.61,0,7.38,6.08,14.37,18.27,14.37,32.65,0,29.81-51.12,43.45-56.94,2.27-1,5.72-2.45,5.72-7.27C330.94,401.72,303.8,402.8,302.39,412.52Zm.05,2.14c.62,3.14,3,4,3,6.29a10.69,10.69,0,0,1-1.92,5.59c-.81-1.14-3.28-5.75-3.32-7.13A7.41,7.41,0,0,0,302.44,414.66Zm-64.6,7.71c.54-3.38,4.07-4.14,5.45-1.56a2.52,2.52,0,0,1,.33,1.73C243.35,422.68,238.16,422.39,237.84,422.37Z"/><path class="cls-1" d="M418.53,432.82c-.33-8.54-.63-14.36-1.78-17.3-4.46-11.32-23.16-14.93-31.8-4.1-.25-4.19-2.75-6.37-6.47-6.37-4.25,0-20.05,4.93-23.89,7.73s-4.13,8.28.57,11.23c2.19,1.35,2.19,1.35,2.19,4.69,0,4.93-.34,15.15-.89,17.07-.07.27-.22.41-1,.93-6.33,4.47-4.43,14.37,14.66,14.37,3.35,0,14.47-.42,17.67-5.83,2,5.33,9.54,5.57,15.9,5.57,10,0,18.1-.78,19.69-7a6.42,6.42,0,0,0-1.33-5.88C418.84,444.48,419,446,418.53,432.82Zm-30.46,16.89c-1.6-3.62-2.91-2.69-2.91-7.63.16-6.27-.45-14,.86-16.22.58-1,3.62-1.14,4.33.3.6,1.23,1.31,3.77,1.31,8.9C391.66,449.48,389.55,447.08,388.07,449.71Z"/><path class="cls-1" d="M445.35,403.78a5.54,5.54,0,0,1-1.34-1.3c0-5.29,7.11-7.29,6.67-12.1-.38-4.12-7.87-8.93-15.08-1.73-22,21.78-10.75,41.34,2.17,41.34,10.4,0,17.15-12.21,12-21.26A16.8,16.8,0,0,0,445.35,403.78Z"/><path class="cls-1" d="M713.33,444.45c-2.78-1.54-3.69-2.35-6.5-5.75-1.62-1.94-8.77-11.18-10.91-14.59,1.24-1.06,4.56-3.22,6.67-3.6,2.29-.41,7-1.28,7-6.51a8.12,8.12,0,0,0-5.57-7.44c-5.93-2.08-27.81-3.92-27.81,6.65a5.91,5.91,0,0,0,1.32,3.64,25.41,25.41,0,0,1-3.53,2.09c-.6-3.27.08-13.3.38-27.22a4.68,4.68,0,0,0-1.28-3.53c-4.28-4.45-18.23.81-24.52,3.14-3.09,1.13-9.51,3.48-9.51,9.07,0,6.09,5.75,5.84,7.07,6.3.75,3.75.65,29.63-.66,37.79-.35,1.52-2.33,1.4-4.07,3.95a10,10,0,0,0-4.16-2.87c-.58-.91-.41-8.32-.41-12,.48-39.63,4.18-47.26-5.51-47.26-5,0-25,2.58-28.92,10.34-1.57,3.05-.82,6.94,3.78,9.88,1.45.92,2.4,1.53,2.84,3.73,1,4.9.75,25.87-.13,33.08-.26,2.19-.55,2.31-1.49,2.71a7.52,7.52,0,0,0-2.94,1.94c-5.91-8.05-4.25,6.79-4.62-37.05,0-3.59-2.19-5.91-5.57-5.91a26.56,26.56,0,0,0-3.17.21c4.84-2,8.29-5.32,8.29-10.09,0-12.95-24.93-9.36-30.81-2-.84-5.19-6.46-7.82-16.77-7.82-15,0-15.12,3.94-23.66,20.79-2.17,4.28-3.7,7.3-4.47,8.38-.49-.72-1.39-2.47-3.77-6.9-11-20.37-10.71-19.94-13.78-21.08-6.19-2.45-29.7-2.37-29.7,8.39,0,5.34,5.64,6.92,6.64,7.79,2.66,2.82.49,34.89.08,38.59-.42,3.94-.51,4.31-1.59,4.8-3,1.46-5.43,2.5-5.43,6.43,0,5.47,5,8.24,14.85,8.24,4.23,0,17.09,0,17.09-8.39,0-3.25-1.68-4.8-4.32-6-1.23-.56-2.46.43-1.66-15.1,9.9,22,11.21,27,16.15,27,3.84,0,5.7-4.13,6.93-6.87,4.29-9.49,7.26-16.63,9.23-20.1A87.3,87.3,0,0,1,534,443c-.32,2-.66,2.27-1.66,3-7.43,5.63-7,14.87,16.61,14.87,6,0,14.84-.29,18.45-4.65,4.67,6.19,30.67,6.88,37-.8,2.78,4.33,8.51,5.34,19.16,5.34,9.09,0,15-.58,17.95-4.74,2.85,4.56,7.21,4.77,18.6,4.77,6,0,18.63,0,18.63-9.39a7.53,7.53,0,0,0-.37-2.43c9.65,12.22,6.26,10.56,20.4,10.81,8.87.15,19.59.62,19.59-8.47C718.37,448.58,716.67,446.25,713.33,444.45ZM566.7,399.7c.61,4.15,4.56,8.26,13.57,7.79-8.36,2.31-14.56,4.09-14.56,10.14,0,4,2.91,5.57,4.46,6.4,1.27.67,1.39.82,1.43,1.07.24,1.83,1,13.95,0,18-.71,2.82-1.92,2.17-4,4.54-2.12-2.56-4-1.65-4.42-5.1-1.35-10.8-1.75-28-.08-38a5.1,5.1,0,0,1,2.35-3.7A13.57,13.57,0,0,0,566.7,399.7Z"/><path class="cls-1" d="M13.14,333.25C5.51,337.21,0,340.06,0,349.16c0,27.94,73.46,24.51,93.94,16.7,19.65-7.49,18.84-24.73,8-31.35-6.16-3.74-10.23-6.22-10.23-26.25,0-3.61-.33-19.4,2.6-20.57,6.41-2.62,38.93-3.88,42.75-1.13,3.05,2.73,1.22,27.18-.91,37.08-1.67,7.2-2.46,8.43-7,10.94-13.2,7.16-14,24.56,2.8,31.53,14.65,6,94.85,13.61,94.85-18.08,0-11.34-10.72-12.3-15-16.62-6.76-6.89-2.59-106.72-1.59-114.64,1.15-7.37,1.91-8.44,8.28-11.37,6.74-3.27,10.31-8.53,10.31-15.2,0-29.3-71.9-23.14-90.64-18.64-8.32,2-14.72,7.37-17.12,14.38-3,8.92,1.2,15.37,9.7,19.67,4.42,2.23,7.92,4,7.92,33.92,0,2-.32,4.47-1.82,5.13-4.31,1.9-32,1.36-36.83,1-6.44-.42-7.39-1.86-7.4-13.25,0-16.33.31-22.18,7.06-26.33,6.91-4.15,12.19-8.06,12.19-17.33,0-13.73-15.52-21-44.88-21-22.22,0-65.07,3.54-65.07,25.77,0,12.21,14,11.62,18,18.75,3.67,6.52,2.71,88.54.29,107.42C19.11,328.43,18.21,330.63,13.14,333.25Z"/><path class="cls-1" d="M421.09,367.45c14.72-4.84,15.4-18.32,10.17-23.89-9.07-9.61-9.31-10.33-9.63-16.77-2.49-43.52-4.13-70.5-6.52-76.57-4.83-12.27-19.61-26.6-45.36-26.6-22.17,0-30.92,10.68-36.72,17.74-2.21,2.7-4.13,5-5.59,5s-1.88-.49-2-.65c-.7-.8-.93-2.57-.64-4.87.5-3.93-.27-10.06-3.43-13.36-6.8-7.12-22.24-3.21-53.33,7.81-15.07,5.38-27,9.48-27,20.93,0,11.06,12.1,12.31,14.84,17.9,1.72,3.55,1.41,25.27.21,44.89-.87,14-.58,17.49-5.29,20.93-6.25,4.49-8.07,6.67-8.07,12.42,0,25.85,64.58,19.76,78.8,14.91,8.92-3.05,13.45-8.06,13.45-14.91,0-4.69-2-7.54-4-10.3-6.94-9.82-5.28-13.53-5.54-37.58-.26-24.75.14-34.18,13.57-34.18,11.19,0,15.15,8.71,15.15,33.29,0,34.45-4.95,38.45-7.9,40.84-2.37,1.92-4.18,3.81-4.18,9.2,0,4.44,1.74,10.48,10,14C365.39,373.26,407.79,371.82,421.09,367.45Z"/><path class="cls-1" d="M443.83,245.52a18.45,18.45,0,0,0,2.8-20.85,20.88,20.88,0,0,0-5.56-6.17c-1.69-1.37-2-1.76-2-2.32,0-6.66,8.67-10.22,8.67-14.9,0-5.46-9.4-11.11-18.12-2.39-19.67,19.5-16.42,34.64-14.12,40.24C420.45,251.25,434.63,255.07,443.83,245.52Z"/><path class="cls-1" d="M541.57,352.67c0-13.74-13.35-10-16.14-18.65-1.95-7.37-1.39-31.25-.31-49.5.19-3.38,1.36-4.85,1.92-4.85,3.07,0,6.17,8.12,17.91,35.05,18.24,41.8,28.65,70,46.12,31.68,18.71-41.11,26.66-63.17,32.82-63.17a1.91,1.91,0,0,1,1.73,1.53c1.74,5.8.81,34.76-.37,42.17-2,12.38-6.55,9.52-13.14,18-4.77,6.17-3.22,18.27,12.7,22.94C634.31,370.65,714,380.73,714,351c0-11-10.69-12.42-14.67-17.84-4.24-5.75-8.5-79.32-2.24-116.86,3-16.32,16.07-12.31,16.07-27.21,0-13.91-14.34-21-42.61-21-34.7,0-38.21,7.46-52.13,36-13.9,26.7-22.53,47.51-27.13,47.51-5.44,0-17.42-26.61-38.68-65.52-6.09-11.52-8.1-18-37.84-18-14,0-39.91,2.34-47.93,11.12-7.4,8.1-6.06,19.52,7.08,25.81,4.84,2.42,6.14,3.07,7.66,6.46,6.76,15.69,1.51,114.21-2.73,123.8-3.11,7-17.32,4.79-17.32,17.87,0,12.05,12.4,18.15,36.85,18.15C527.45,371.24,541.57,365.17,541.57,352.67Z"/><path class="cls-2" d="M711.19,394.46c0,14.83,22.44,14.83,22.44,0S711.19,379.63,711.19,394.46Zm3.09,0c0-10.74,16.26-10.74,16.26,0S714.28,405.21,714.28,394.46Zm8.06-5.13h-3.79V399.6h2.17v-2.86h1.92l2.09,2.87h2.69l-2.55-3.5C727.56,394.42,727.18,389.33,722.34,389.33Zm-1.62,5.23v-3.05c1.75,0,3.59-.26,3.59,1.49S722.53,394.56,720.72,394.56Z"/><path class="cls-3" d="M36.5,399.73c-3.13,1.93-3,4.93-3,11,0,3.91,1,4.7,3.55,4.87,1.31.09,11.63.37,13.49-.45.82-.36,1.24-1.27,1.24-2.73,0-15.52-2.7-10.87-5.81-14.77-1.86-2.32-.22-7.05,4.86-8.27,7.23-1.74,30.79-3.22,30.79,5.61,0,4.4-4.21,4.26-5.61,6.18s-1.27,8.56-1.44,14.08c-1,31.62-.11,29.74,4.47,32.33,2.76,1.53,3,6.51-2.61,8.67s-21.56,2.47-27.63,0c-5.09-2.12-4.87-7.18-.9-9.34,1.94-1.06,2.34-1.76,3-4.51.52-2.41,1.8-12.64,0-14.11s-13.73-.72-16.11.25c-1.7.68-1.54,6.34-1.54,8.19,0,7.73,1.82,8.75,4.17,10.18,2.73,1.56,3.77,6.76-2.73,9.24-7.24,2.76-31.84,3.52-31.84-5,0-2.65,1.56-3.4,4.28-4.81,2.21-1.11,2.51-2.75,2.83-5.46.69-5.45,1.47-35.56-.23-38.56s-6.23-2.53-6.23-6.14q0-5,9.73-6.95C38.31,384.14,45.91,394.08,36.5,399.73Z"/><path class="cls-4" d="M115.66,407.43c24.7,0,36.78,28.56,17,43.65a34.65,34.65,0,0,1-21.6,7.2C74.11,458.28,76.33,407.43,115.66,407.43Zm-5,34.61c2.18,5.76,9.44,5.78,9.44-1.54C120.08,411,98.78,411.43,110.64,442Z"/><path class="cls-5" d="M207.08,443.28c.13,2.65.43,3.11,3.68,6.55,1.32,1.41,1.36,5.31-3.18,6.81-2.62.86-7.28,1.29-14,1.29-5.11,0-12.61-.12-12.61-5.22,0-1.4.25-1.56,2.29-3.77s3.11-18.42.39-24c-1.78-3.64-7.7-3.32-9.33-.5-1.84,3.15-1.06,10.41-1.24,17.58,0,3.87.15,4.22,2.83,8.24,5.87,9.63-30.05,10.85-30.05,2,0-3.37,3.27-2.92,4.07-5.74.68-2.37,1.58-20.07.48-22.34s-5.14-2.6-5.14-5.89,3.77-4.62,8.89-6.45c9.82-3.48,18.77-6.55,18.77-.35,0,1.43-.71,4.32,1.88,4.32,2.92,0,3.82-8.05,14.95-8.05,7.92,0,13.3,4.2,15.1,8.77C205.67,418.64,206.34,430.36,207.08,443.28Z"/><path class="cls-6" d="M260.27,434.69c-23.55.42-24.88-1-24.88,1.34,0,4.57,5.9,8.94,11,8.94,10,0,11.57-7.55,15.3-2.78,5.72,7.34-9.45,16.09-21.46,16.09-29.18,0-35.8-37.81-9.88-48.67,22.63-9.54,40.17,12.58,33.37,23A4,4,0,0,1,260.27,434.69Zm-17-9.29c5.49,0,3.6-9-2.38-9-5.14,0-7.08,6.8-5.14,8.4C236.19,425.2,239.26,425.29,243.23,425.4Z"/><path class="cls-7" d="M281.77,474.27c-20.17,0-18.44-20.51-6.95-20.51a7.45,7.45,0,0,1,5.76,2.38c3.13,3.28,1.39,7.85,4.91,7.85,2.3,0,3.63-2.33,3.63-4.67,0-3.7-4-10.27-14.55-33.27-2.46-5.17-2.77-5.51-7-7.4-2.64-1-8.89-10.88,19.71-10.88,5.24,0,12.37.77,12.37,6,0,5.44-5.42,1.85.49,12.61,2.33,4.3,4.15,4.82,6.51.43a12.49,12.49,0,0,0,1.64-5.89c0-3.89-3.13-4.7-3.13-7.55,0-6.86,22.94-8,22.94-.49,0,5.23-5.83,3.68-8.74,8C308.74,437.1,308,474.27,281.77,474.27Z"/><path class="cls-8" d="M417,446.21a24.69,24.69,0,0,0,3.06,3.62c1.32,1.41,1.36,5.31-3.18,6.81s-19.24,2-23.69.1a4.19,4.19,0,0,1-2.93-4c0-4.73,4.27,1.29,4.27-17.67q0-6.85-1.58-10.13c-1.79-3.64-7.7-3.32-9.34-.5-1.83,3.15-1.06,10.41-1.24,17.58,0,3.87.15,4.22,2.83,8.24,5.87,9.63-30.05,10.85-30.05,2,0-3.37,3.27-2.92,4.08-5.74.75-2.64,1-14.33,1-17.85,0-4.5-.29-5.09-3.53-7.1-3-1.88-2.6-4.92-.39-6.53,2.92-2.13,12.79-5.13,16.33-6.06,5.45-1.44,9.82-2.58,9.54,3.75-.42,3.33,2.23,4.34,4.47,1.19,7-10.05,23.74-6.95,27.51,2.61C416.16,421.76,415.26,443.12,417,446.21Z"/><path class="cls-9" d="M446.46,388.75c5.08,3.57-5.29,5.86-5.29,13.71,0,3,3.73,3.34,6.16,7.65a12,12,0,0,1-1.84,13.53c-11.36,11.81-33-8.15-7.89-33C440.18,388.06,443.52,386.69,446.46,388.75Z"/><path class="cls-10" d="M522.86,449.73c-1,2.24-2.41,5.72-4.57,5.72s-3-2.56-4.44-5.32c-8.18-15.72-9.77-24.53-12.64-24.53-1.06,0-1.64.88-1.74,2.63-1.22,20.68.25,19.21,4.17,21.21a3,3,0,0,1,1.64,2.93q0,5.55-14.25,5.56-12,0-12-5.41c0-2.11.89-2.46,3.83-3.88,2.71-1.23,2.79-3.45,3.18-7.05.7-6.24,1.24-21.49,1.24-28.55,0-3.17,0-10.51-2.26-12.47-1.57-1.36-5.69-2.17-5.69-5.66,0-7.36,20.38-7.92,25.82-5.76,2.28.88,1.6-.16,14.5,23.84,1.76,3.24,2.29,4.52,4.13,4.52,2.25,0,2.47-1.4,10.57-17.19,4.87-9.92,5.84-12.16,17.53-12.16q14.05,0,14.06,6.4c0,4.64-4.53,3.21-5.66,9.44-1.82,10.9-1.24,28.58,0,38.88.39,3.12.8,3.54,4.12,5.71,2.75,1.84,2.8,6.34-2.83,8.1-7.5,2.5-36.29,2.21-29.6-6.43,2.14-2.77,4.08-2,4.84-6.83.42-2.65.79-13.06.1-15.35-.45-1.51-2.41-2.05-4.24.67C530.56,431.91,526.75,441.2,522.86,449.73Z"/><path class="cls-11" d="M597.05,410.9c.28,33.08-1.25,33.69,3.13,36.8,10.4,7.38-10,13.58-27.51,8.84-3.63-1-4.75-4.72-3.33-6.66,1.62-2.2,3.91-1.88,5-6.1,1.17-4.7.31-17.46.1-19.07-.56-3.81-5.86-2.71-5.86-7.1q0-3.14,4-4.67c5.46-2.1,16-5.12,21.75-5.12C596.14,407.82,597.05,408.85,597.05,410.9Zm-.44-15.79c0,7.1-11.34,9.58-18.48,9.58-9.69,0-12.3-9.16-2.53-13.06C583.35,388.54,596.61,387.56,596.61,395.11Z"/><path class="cls-12" d="M634.05,433.5c0,12.55-.28,13.64,2.78,15,5.4,2.34,3.06,7.15-1.19,8.35-4.9,1.49-20.34,1.58-25.53-.35-3.76-1.36-5-5.11-3.45-6.71,1.86-1.93,4.43-.56,5.09-6.15.93-7.53,1.16-28.66.1-34s-4.66-5.11-6.33-7.42c-6.07-8.43,17.92-13.14,25.85-13.14C637.35,389.1,634.54,392.06,634.05,433.5Z"/><path class="cls-13" d="M671.59,391.58C671,420.74,669,425.53,677.9,420c6.05-3.76,1.19-3.76,1.19-6.82,0-6.9,18.48-5.92,24-4A5.31,5.31,0,0,1,706.8,414c0,3-2.55,3.32-5,3.77-2.76.51-9.13,4.55-9.13,6.06s10.63,15,12,16.69c3,3.67,4.18,4.67,7.3,6.4q3.59,2,3.58,4.42c0,7.52-11.75,5.31-24.53,5.62-4.87-.08-5-3.5-13-12.82q-3.28-4.17-4-5c-3.15-3.47-2.26,5.61-1.71,6.73,1.22,2.5,3.57,2.11,3.57,5.53,0,6.34-9.47,6.56-15.79,6.56-11.57,0-13.92-.47-15.79-2.86-1.64-2.08-1.83-4.66.89-6.48,2.31-1.48,2.68-1.9,3.08-3.62,1.37-8.32,1.55-36.66.52-39.43-1.24-3.35-6.88-.36-6.88-5.22,0-3.38,4.42-5.22,7.65-6.4C654.94,392,671.82,385.94,671.59,391.58Z"/><path class="cls-14" d="M109,188.77c0,7.45-3.66,10.6-10.82,14.9-8.87,5.45-8.44,14-8.44,31.06,0,11,2.91,13.31,10,13.77,3.68.25,32.89,1.06,38.16-1.26q3.51-1.55,3.51-7.73c0-43.93-7.62-30.77-16.44-41.82-5.27-6.56-.61-19.95,13.77-23.4,17.84-4.28,87.14-9.94,87.14,15.89q0,8.43-8.71,12.65c-7.29,3.36-8.56,5.27-9.84,13.49-.43,2.67-6.15,108.56,2.39,117.07,4.9,4.91,14.19,5.17,14.19,14.62,0,27.65-76.32,21.48-90.93,15.46-14.41-6-13.78-20.32-2.53-26.42,5.48-3,6.62-5,8.43-12.79,1.46-6.81,5.08-35.75-.07-39.92-4.71-3.82-38.87-2-45.6.7-4.81,1.93-4.36,15.31-4.36,23.19,0,21.87,5.16,24.77,11.81,28.82,7.72,4.41,10.68,19.12-7.73,26.14-20.48,7.81-90.1,9.95-90.1-14.06,0-7.52,4.39-9.64,12.09-13.63,6.28-3.14,7.13-7.78,8-15.46,2.23-17.38,3.81-101.25-.63-109.13-4.69-8.33-17.64-7.15-17.64-17.36q0-14.2,27.55-19.68C54.41,169.39,109,166,109,188.77Z"/><path class="cls-15" d="M418.8,326.93c.37,7.49,1.2,8.81,10.4,18.55,3.73,4,3.85,15-9,19.26-12.68,4.17-54.44,5.58-67,.28q-8.3-3.51-8.29-11.39c0-13.39,12.09,3.65,12.09-50,0-22.09-3-36.12-18-36.12-20.91,0-15.56,21.29-16.45,55.79,0,19.89,9.56,19.78,9.56,29.1q0,8.29-11.52,12.22c-13.85,4.73-75.06,9.91-75.06-12.22,0-4.38.89-5.81,6.89-10.12s5.61-9.43,6.47-23.05c.35-5.83,2.3-40.57-.5-46.31-3.32-6.8-14.54-7.36-14.54-16.66S254.48,243.15,269,238c42.22-15,53.8-15.83,53,2.53-.6,4.8.6,8.71,5.48,8.71,8.27,0,10.82-22.76,42.31-22.76,22.41,0,37.63,11.87,42.72,24.8C414.81,257.19,416.71,290.36,418.8,326.93Z"/><path class="cls-16" d="M444.86,201.26c0,2.69-8.66,7.22-8.66,14.9,0,3.82,4.81,4.32,8,9.88a15.52,15.52,0,0,1-2.38,17.49c-14.69,15.27-42.6-10.54-10.2-42.65C438.52,193.93,444.86,198.4,444.86,201.26Z"/><path class="cls-17" d="M588.49,345.2c-16.2,35.53-21.07,12.14-53.27-59.59-5.44-12.5-12.4-10.52-12.93-1.27-.57,9.7-2.12,41.07.42,50.46,3.36,10.59,16,6,16,17.85q0,15.74-40.34,15.74-34,0-34-15.32c0-11,13.25-8.09,17.07-16.72,4.49-10.17,9.89-109.48,2.74-126.08-1.95-4.33-4-5.37-9-7.87-11.83-5.66-12.12-14.94-6.26-21.36,9.75-10.67,55.69-12.72,69.36-7.31,6,2.32,7.84,6.12,11.81,13.63,47.39,86.71,35.63,85.59,70.84,18,13.76-28.08,16.5-34.43,49.61-34.43q39.76,0,39.77,18.13c0,13.11-12.81,9.08-16,26.71-6,36.15-2.63,111.74,2.74,119,4.56,6.2,14.13,6.89,14.13,16.16,0,25.62-75.38,17.15-85.59,14.2-14.18-4.16-14.68-14.05-11.25-18.48,6.06-7.83,11.56-5.78,13.7-19.33,1.19-7.49,2.23-37,.29-43.43-1.29-4.27-6.82-5.81-12,1.9C610.28,294.76,599.49,321,588.49,345.2Z"/><path class="cls-1" d="M423.1,23.33a27,27,0,0,1-5.31-4.62c-2.55-3.17-14-8.1-17.57-10.11h-2.49A9.14,9.14,0,0,0,395.08,7c-3.45,0-13.19,10.88-13.19,14.33,0,1.86,7.22,12,8.3,15.94l-4.81,29.13.57,3.29c-.46,2.46-1.59,8-1.82,9.44-1.62,20.65-3.49,18.82-2.36,24.73.74,3.89.59,6.4-3.65,8.65-4.75,2.54-6.87,4.19,2.86,9.32l.41,5.31c-7.21,28,4.87,33.74,13.1,13.18-4.78-6.29-3.54-8.57-3.07-16.89.71-11.81-.64-4.55,9.88-10.36,20.76-9.52,23.32-9.36,29.19-15.75,4.36-3.56,13.43-6.46,13.43-29.83C443.92,41.18,426.65,28.59,423.1,23.33Zm-18.65,78.79c-3.57,2.12-10,5.89-10,1.74,0-7.07,2.81-19.6,4.48-26.46l-.65-3.85c1.76-4,7.54-27.65,7.54-29.47q0-5.4-9.78-16.67c0-.69.22-1.09.91-1.09,5.05,2.64,4.59,2.27,8.7,4.39,20.93,21.21,15.73,18.17,18.49,22.52a34.84,34.84,0,0,1,2.57,3.85l.17,2.2C436.72,84.91,421.13,92.29,404.45,102.12Z"/><path class="cls-1" d="M465.55,62.41c5.68,0,5.11,1.82,10.21-2.11,4.62-3,5.45-6.21,7.54-14.66.46-2.33,1.57-5.36-.11-7s-6.32-1-8.26.54c-1.27,1.65-2.38,3.11-3.32,4.4-3.29.39-8.37,7.85-8.37,11.36C463.24,57.36,463.53,61.17,465.55,62.41Z"/><path class="cls-1" d="M697.52,109.77c-.42-1.08-5.13,4.47-5.13,4.47-2.39,3-6,3-8.12-3.75-1.5-4.87-3.63-19.9-14.22-15.48a26.59,26.59,0,0,0-11.37,8.88c-2,3.06-3.41,2.66-5.51,7-1.72,1.66-4.3,4.15-5.3,6.23A7.94,7.94,0,0,1,646.2,119c-1.94-2.74,1.34-4.21,6.06-24.08,1-4.35,2.52-10.36,0-14.07-2.07-3-6.91-2.33-10-.59-2.47,1.36-3.59,2.43-13.55,15-.69-13.59-9-15.6-14.71-13.63q-2.09.75-5.73,2.29l-.49-.82c.6-1.4,1.18-2.81,1.73-4.21-.13-1.61-2.21-1.93-3.81-1.93-4.61,0-6.87,4.21-10.45,8.16-2.44,2.47-6.76,5.86-8.13,9.25-2.38,2.31-7.65,7.39-9.54,9.89l-6.37,4.86a47.51,47.51,0,0,1-2.66,4s0,0,0,.05c-1.12,1.64-1.38,2.4-3.5,2.4-3.5,0-4.63-5.58-7.71-16.12-1.65-3.41-4.1-5.68-8-5.68-2.54,0-8.54,2.74-13.18,7.88-.67.83-2,2.73-2.15,2.92a19,19,0,0,0-4.66,5.87c-6.11,5.87-2.92,3.35-6.17,7.33a4.47,4.47,0,0,1-.78.74c-1.44-2.08.66-5.9,1.65-8.34,1.33-4.36,5.81-19.28,5.81-23.83s-1.35-8-5.81-8c-7.58,0-9.31,4.47-27.53,26.83-3.08,3.45-4.9,4.82-6.93,8-1.63,1.51-3.07,3-5.14,3.83-6,2.25-6.64-1-7.63-5.4-2.68-11.92-3-19.48-6-21.89-2.72-2.23-6.84-2.56-8.95,1.14-3.82,6-11.72,11.69-15.67,17.69l-.25.91-.5.64c-.29,1.82-1.82,9.6,1,11.61,13.21-16.05,10.93-11.88,15.83-4.47,2,3,3,9.9,6,12.47q2.24,1.9,9.78,1.91c3.75,0,13.85-8.89,16.38-11.33.1,0,.23,0,.26,0l1.61-1.74,0-.11c8.12-9.82,11.29-14.16,13.44-14.16,2.48,0,1.85,2.47,1,4.94-1.51,4.69-4.78,18.19-7.42,26.39.46,4.91-.1,7.6,4.13,7.6,4.82,0,6.27-2.53,9.78-6.41,2.89-3.25,9-10.12,11-13.93a5,5,0,0,1,2.24-2.1c4.35-2.46,6.55-7.19,11.75-9.08l.76.28c1.32,1.93,4.08,6.09,5.62,7.78,2,4.36,5.64,14.37,13.94,10.5,1.89-.88,4.8-3.83,6.46-5.36a26.81,26.81,0,0,0,2.8-3.32s0,0,0,0a29.51,29.51,0,0,0,1.66-2.74c.51-.45,5.8-5.32,6.48-5.32a1.33,1.33,0,0,1,1.4,1.47c0,.21-1.82,7.53-1.82,10.07,0,7.06,5.8,14.19,12.36,14.19.9,0,3.1-.73,3.55-.73,2.23,0,4.86-1.2,6.9-2.29,7.93-3.66,11.12-9.2,14.51-13.75,1.44-1.11,2.5-2,2.72-2.2.75-.8,2.26-4.37,2.82-4.8,2.72-1.54,9.36-13,12.43-10.35,1.13,1-.45,5.13-1,6.64,0,0-4.24,16.58-6.74,24.32.46,4.91-.11,7.6,4.14,7.6,4,0,5.06-1.28,7.62-4.07,3-3.12,11.14-12.34,13.18-16.26a5.07,5.07,0,0,1,2.24-2.11c3.8-2.09,6.85-7.37,11.77-9.06l.73.27c1.4,2,4,6,5.64,7.79,2.41,5.34,4.72,11.26,10.61,11.26,4,0,5.68-2.43,12.69-8.79,0,0,2.08-1.31,2.18-2.68C698.08,117.21,698.11,111.25,697.52,109.77Zm-99.4,16.89a4.57,4.57,0,0,1-3.57-1.28c-2.31-2.58-.63-8.36.58-12.09,2.37-8.2,3.25-6,5.94-7.56,3-1.74,5.31-9,7.33-9.39,6.57.92,6.67.47,8.63,7.6-1.7,5.91-2,7.25-2,7.25C606.87,123.28,604.77,126.66,598.12,126.66Z"/><path class="cls-18" d="M555.9,25.73s-1.77,2.89-4.59,2.89-3.36-2.49-6.42-2.09c-6.66.88-2.48,12.75-14.72,7.16-4.57-2.09-5.62,3.13-5.62,3.13l15.43,36s1-5.22,5.63-3.13c12.2,5.56,8.08-6.27,14.7-7.16,3.06-.39,3.63,2.09,6.45,2.09s4.56-2.89,4.56-2.89Z"/><path class="cls-19" d="M568.76,12.86s-1.76,2.9-4.58,2.9-3.38-2.49-6.42-2.09c-6.66.86-2.49,12.76-14.72,7.15C538.45,18.73,537.4,24,537.4,24l15.45,36s1-5.23,5.62-3.13c12.22,5.55,8.06-6.27,14.71-7.16,3.05-.4,3.62,2.09,6.43,2.09s4.58-2.89,4.58-2.89Z"/><path class="cls-20" d="M579.05,0s-1.76,2.9-4.58,2.9S571.09.41,568.05.8c-6.67.89-2.48,12.75-14.72,7.17-4.59-2.09-5.63,3.13-5.63,3.13l15.44,36s1-5.22,5.62-3.13c12.22,5.58,8.07-6.28,14.71-7.16,3.06-.41,3.62,2.09,6.44,2.09S594.48,36,594.48,36Z"/><path class="cls-1" d="M692.63,70C692.63,90,722.8,90,722.8,70S692.63,50.09,692.63,70Zm4.15,0c0-14.45,21.87-14.45,21.87,0S696.78,84.48,696.78,70Zm10.84-6.9h-5.1v13.8h2.92V73.09H708l2.81,3.85h3.63L711,72.23C714.64,70,714.06,63.13,707.62,63.13Zm-2.18,7V66.05c2.37,0,4.84-.33,4.84,2S707.88,70.16,705.44,70.16Z"/></g></g></svg>