<?xml version="1.0" encoding="utf-8"?>
<!-- Generator: Adobe Illustrator 19.0.0, SVG Export Plug-In . SVG Version: 6.00 Build 0)  -->
<svg version="1.1" id="Layer_1" xmlns="http://www.w3.org/2000/svg" xmlns:xlink="http://www.w3.org/1999/xlink" x="0px" y="0px"
	 viewBox="0 0 730.8 474.3" style="enable-background:new 0 0 730.8 474.3;" xml:space="preserve">
<style type="text/css">
	.st0{fill:url(#XMLID_112_);}
	.st1{fill:url(#XMLID_113_);}
	.st2{fill:url(#XMLID_114_);}
	.st3{fill:url(#XMLID_115_);}
	.st4{fill:url(#XMLID_116_);}
	.st5{fill:url(#XMLID_117_);}
	.st6{fill:url(#XMLID_118_);}
	.st7{fill:url(#XMLID_119_);}
	.st8{fill:url(#XMLID_120_);}
	.st9{fill:url(#XMLID_121_);}
	.st10{fill:url(#XMLID_122_);}
	.st11{fill:url(#XMLID_123_);}
	.st12{fill:url(#XMLID_124_);}
	.st13{fill:url(#XMLID_125_);}
	.st14{fill:url(#XMLID_126_);}
	.st15{fill:url(#XMLID_127_);}
	.st16{fill:#1D1D1B;}
	.st17{fill-rule:evenodd;clip-rule:evenodd;fill:#00843B;}
	.st18{fill-rule:evenodd;clip-rule:evenodd;fill:#FFD100;}
	.st19{fill-rule:evenodd;clip-rule:evenodd;fill:#BC1B1E;}
</style>
<g id="XMLID_1_">
	<g id="XMLID_2_">
		<g id="XMLID_3_">
			<g id="XMLID_53_">
				<linearGradient id="XMLID_112_" gradientUnits="userSpaceOnUse" x1="-93.0758" y1="394.4632" x2="746.3648" y2="394.4632">
					<stop  offset="0" style="stop-color:#CB9F3A"/>
					<stop  offset="0.5036" style="stop-color:#E9CF7F"/>
					<stop  offset="1" style="stop-color:#F6CC41"/>
				</linearGradient>
				<path id="XMLID_156_" class="st0" d="M708.4,394.5c0,14.8,22.4,14.8,22.4,0C730.8,379.6,708.4,379.6,708.4,394.5z M711.4,394.5
					c0-10.7,16.3-10.7,16.3,0C727.7,405.2,711.4,405.2,711.4,394.5z M719.5,389.3h-3.8v10.3h2.2v-2.9c0.3,0,1.7,0,1.9,0l2.1,2.9h2.7
					l-2.6-3.5C724.7,394.4,724.3,389.3,719.5,389.3z M717.9,394.6v-3.1c1.8,0,3.6-0.3,3.6,1.5C721.5,394.8,719.7,394.6,717.9,394.6z
					"/>
			</g>
			<g id="XMLID_4_">
				<linearGradient id="XMLID_113_" gradientUnits="userSpaceOnUse" x1="-93.0758" y1="422.8931" x2="746.3648" y2="422.8931">
					<stop  offset="0" style="stop-color:#CB9F3A"/>
					<stop  offset="0.5036" style="stop-color:#E9CF7F"/>
					<stop  offset="1" style="stop-color:#F6CC41"/>
				</linearGradient>
				<path id="XMLID_5_" class="st1" d="M33.7,399.7c-3.1,1.9-3,4.9-3,11c0,3.9,1,4.7,3.6,4.9c1.3,0.1,11.6,0.4,13.5-0.4
					c0.8-0.4,1.2-1.3,1.2-2.7c0-15.5-2.7-10.9-5.8-14.8c-1.9-2.3-0.2-7,4.9-8.3c7.2-1.7,30.8-3.2,30.8,5.6c0,4.4-4.2,4.3-5.6,6.2
					c-1.4,1.9-1.3,8.6-1.4,14.1c-1,31.6-0.1,29.7,4.5,32.3c2.8,1.5,3,6.5-2.6,8.7c-5.7,2.2-21.6,2.5-27.6,0
					c-5.1-2.1-4.9-7.2-0.9-9.3c1.9-1.1,2.3-1.8,3-4.5c0.5-2.4,1.8-12.6,0-14.1c-1.7-1.3-13.7-0.7-16.1,0.2c-1.7,0.7-1.5,6.3-1.5,8.2
					c0,7.7,1.8,8.8,4.2,10.2c2.7,1.6,3.8,6.8-2.7,9.2c-7.2,2.8-31.8,3.5-31.8-5c0-2.7,1.6-3.4,4.3-4.8c2.2-1.1,2.5-2.8,2.8-5.5
					c0.7-5.4,1.5-35.6-0.2-38.6c-1.7-2.9-6.2-2.5-6.2-6.1c0-3.3,3.2-5.7,9.7-7C35.5,384.1,43.1,394.1,33.7,399.7z"/>
				<linearGradient id="XMLID_114_" gradientUnits="userSpaceOnUse" x1="-93.0758" y1="432.8507" x2="746.3648" y2="432.8507">
					<stop  offset="0" style="stop-color:#CB9F3A"/>
					<stop  offset="0.5036" style="stop-color:#E9CF7F"/>
					<stop  offset="1" style="stop-color:#F6CC41"/>
				</linearGradient>
				<path id="XMLID_6_" class="st2" d="M112.8,407.4c24.7,0,36.8,28.6,17,43.7c-6.3,4.8-13.5,7.2-21.6,7.2
					C71.3,458.3,73.5,407.4,112.8,407.4z M107.8,442c2.2,5.8,9.4,5.8,9.4-1.5C117.2,411,95.9,411.4,107.8,442z"/>
				<linearGradient id="XMLID_115_" gradientUnits="userSpaceOnUse" x1="-93.0758" y1="432.9946" x2="746.3648" y2="432.9946">
					<stop  offset="0" style="stop-color:#CB9F3A"/>
					<stop  offset="0.5036" style="stop-color:#E9CF7F"/>
					<stop  offset="1" style="stop-color:#F6CC41"/>
				</linearGradient>
				<path id="XMLID_7_" class="st3" d="M204.2,443.3c0.1,2.6,0.4,3.1,3.7,6.6c1.3,1.4,1.4,5.3-3.2,6.8c-2.6,0.9-7.3,1.3-14,1.3
					c-5.1,0-12.6-0.1-12.6-5.2c0-1.4,0.2-1.6,2.3-3.8c2-2.2,3.1-18.4,0.4-24c-1.8-3.6-7.7-3.3-9.3-0.5c-1.8,3.2-1.1,10.4-1.2,17.6
					c0,3.9,0.2,4.2,2.8,8.2c5.9,9.6-30,10.8-30,2c0-3.4,3.3-2.9,4.1-5.7c0.7-2.4,1.6-20.1,0.5-22.3c-1.2-2.4-5.1-2.6-5.1-5.9
					c0-3.3,3.8-4.6,8.9-6.5c9.8-3.5,18.8-6.5,18.8-0.3c0,1.4-0.7,4.3,1.9,4.3c2.9,0,3.8-8,14.9-8c7.9,0,13.3,4.2,15.1,8.8
					C202.8,418.6,203.5,430.4,204.2,443.3z"/>
				<linearGradient id="XMLID_116_" gradientUnits="userSpaceOnUse" x1="-93.0758" y1="432.7765" x2="746.3648" y2="432.7765">
					<stop  offset="0" style="stop-color:#CB9F3A"/>
					<stop  offset="0.5036" style="stop-color:#E9CF7F"/>
					<stop  offset="1" style="stop-color:#F6CC41"/>
				</linearGradient>
				<path id="XMLID_8_" class="st4" d="M257.4,434.7c-23.5,0.4-24.9-1-24.9,1.3c0,4.6,5.9,8.9,11,8.9c10,0,11.6-7.6,15.3-2.8
					c5.7,7.3-9.4,16.1-21.5,16.1c-29.2,0-35.8-37.8-9.9-48.7c22.6-9.5,40.2,12.6,33.4,23C260,434,258.9,434.7,257.4,434.7z
					 M240.4,425.4c5.5,0,3.6-9-2.4-9c-5.1,0-7.1,6.8-5.1,8.4C233.4,425.2,236.4,425.3,240.4,425.4z"/>
				<linearGradient id="XMLID_117_" gradientUnits="userSpaceOnUse" x1="-93.0758" y1="440.9951" x2="746.3648" y2="440.9951">
					<stop  offset="0" style="stop-color:#CB9F3A"/>
					<stop  offset="0.5036" style="stop-color:#E9CF7F"/>
					<stop  offset="1" style="stop-color:#F6CC41"/>
				</linearGradient>
				<path id="XMLID_9_" class="st5" d="M278.9,474.3c-20.2,0-18.4-20.5-7-20.5c2.4,0,4.3,0.8,5.8,2.4c3.1,3.3,1.4,7.8,4.9,7.8
					c2.3,0,3.6-2.3,3.6-4.7c0-3.7-4-10.3-14.6-33.3c-2.5-5.2-2.8-5.5-7-7.4c-2.6-1.1-8.9-10.9,19.7-10.9c5.2,0,12.4,0.8,12.4,6
					c0,5.4-5.4,1.8,0.5,12.6c2.3,4.3,4.1,4.8,6.5,0.4c1.1-2,1.6-4,1.6-5.9c0-3.9-3.1-4.7-3.1-7.5c0-6.9,22.9-8,22.9-0.5
					c0,5.2-5.8,3.7-8.7,8C305.9,437.1,305.1,474.3,278.9,474.3z"/>
				<linearGradient id="XMLID_118_" gradientUnits="userSpaceOnUse" x1="-93.0758" y1="432.9724" x2="746.3648" y2="432.9724">
					<stop  offset="0" style="stop-color:#CB9F3A"/>
					<stop  offset="0.5036" style="stop-color:#E9CF7F"/>
					<stop  offset="1" style="stop-color:#F6CC41"/>
				</linearGradient>
				<path id="XMLID_10_" class="st6" d="M414.1,446.2c0.3,0.6,1.4,1.8,3.1,3.6c1.3,1.4,1.4,5.3-3.2,6.8c-4.5,1.5-19.2,2-23.7,0.1
					c-2-0.8-2.9-2.2-2.9-4c0-4.7,4.3,1.3,4.3-17.7c0-4.6-0.5-7.9-1.6-10.1c-1.8-3.6-7.7-3.3-9.3-0.5c-1.8,3.2-1.1,10.4-1.2,17.6
					c0,3.9,0.2,4.2,2.8,8.2c5.9,9.6-30,10.8-30,2c0-3.4,3.3-2.9,4.1-5.7c0.8-2.6,1-14.3,1-17.9c0-4.5-0.3-5.1-3.5-7.1
					c-3-1.9-2.6-4.9-0.4-6.5c2.9-2.1,12.8-5.1,16.3-6.1c5.4-1.4,9.8-2.6,9.5,3.7c-0.4,3.3,2.2,4.3,4.5,1.2c7-10,23.7-7,27.5,2.6
					C413.3,421.8,412.4,443.1,414.1,446.2z"/>
				<linearGradient id="XMLID_119_" gradientUnits="userSpaceOnUse" x1="-93.0758" y1="407.4402" x2="746.3648" y2="407.4402">
					<stop  offset="0" style="stop-color:#CB9F3A"/>
					<stop  offset="0.5036" style="stop-color:#E9CF7F"/>
					<stop  offset="1" style="stop-color:#F6CC41"/>
				</linearGradient>
				<path id="XMLID_11_" class="st7" d="M443.6,388.8c5.1,3.6-5.3,5.9-5.3,13.7c0,3,3.7,3.3,6.2,7.6c2,3.6,1.9,9.6-1.8,13.5
					c-11.4,11.8-33-8.2-7.9-33C437.3,388.1,440.7,386.7,443.6,388.8z"/>
				<linearGradient id="XMLID_120_" gradientUnits="userSpaceOnUse" x1="-93.0758" y1="423.0501" x2="746.3648" y2="423.0501">
					<stop  offset="0" style="stop-color:#CB9F3A"/>
					<stop  offset="0.5036" style="stop-color:#E9CF7F"/>
					<stop  offset="1" style="stop-color:#F6CC41"/>
				</linearGradient>
				<path id="XMLID_12_" class="st8" d="M520,449.7c-1,2.2-2.4,5.7-4.6,5.7c-2.1,0-3-2.6-4.4-5.3c-8.2-15.7-9.8-24.5-12.6-24.5
					c-1.1,0-1.6,0.9-1.7,2.6c-1.2,20.7,0.3,19.2,4.2,21.2c1.1,0.6,1.6,1.5,1.6,2.9c0,3.7-4.8,5.6-14.3,5.6c-8,0-12-1.8-12-5.4
					c0-2.1,0.9-2.5,3.8-3.9c2.7-1.2,2.8-3.5,3.2-7.1c0.7-6.2,1.2-21.5,1.2-28.6c0-3.2,0-10.5-2.3-12.5c-1.6-1.4-5.7-2.2-5.7-5.7
					c0-7.4,20.4-7.9,25.8-5.8c2.3,0.9,1.6-0.2,14.5,23.8c1.8,3.2,2.3,4.5,4.1,4.5c2.2,0,2.5-1.4,10.6-17.2
					c4.9-9.9,5.8-12.2,17.5-12.2c9.4,0,14.1,2.1,14.1,6.4c0,4.6-4.5,3.2-5.7,9.4c-1.8,10.9-1.2,28.6,0,38.9c0.4,3.1,0.8,3.5,4.1,5.7
					c2.7,1.8,2.8,6.3-2.8,8.1c-7.5,2.5-36.3,2.2-29.6-6.4c2.1-2.8,4.1-2,4.8-6.8c0.4-2.6,0.8-13.1,0.1-15.3
					c-0.5-1.5-2.4-2.1-4.2,0.7C527.7,431.9,523.9,441.2,520,449.7z"/>
				<linearGradient id="XMLID_121_" gradientUnits="userSpaceOnUse" x1="-93.0758" y1="423.761" x2="746.3648" y2="423.761">
					<stop  offset="0" style="stop-color:#CB9F3A"/>
					<stop  offset="0.5036" style="stop-color:#E9CF7F"/>
					<stop  offset="1" style="stop-color:#F6CC41"/>
				</linearGradient>
				<path id="XMLID_13_" class="st9" d="M594.2,410.9c0.3,33.1-1.3,33.7,3.1,36.8c10.4,7.4-10,13.6-27.5,8.8c-3.6-1-4.7-4.7-3.3-6.7
					c1.6-2.2,3.9-1.9,5-6.1c1.2-4.7,0.3-17.5,0.1-19.1c-0.6-3.8-5.9-2.7-5.9-7.1c0-2.1,1.3-3.6,4-4.7c5.5-2.1,16-5.1,21.8-5.1
					C593.3,407.8,594.2,408.8,594.2,410.9z M593.8,395.1c0,7.1-11.3,9.6-18.5,9.6c-9.7,0-12.3-9.2-2.5-13.1
					C580.5,388.5,593.8,387.6,593.8,395.1z"/>
				<linearGradient id="XMLID_122_" gradientUnits="userSpaceOnUse" x1="-93.0758" y1="423.5244" x2="746.3648" y2="423.5244">
					<stop  offset="0" style="stop-color:#CB9F3A"/>
					<stop  offset="0.5036" style="stop-color:#E9CF7F"/>
					<stop  offset="1" style="stop-color:#F6CC41"/>
				</linearGradient>
				<path id="XMLID_14_" class="st10" d="M631.2,433.5c0,12.6-0.3,13.6,2.8,15c5.4,2.3,3.1,7.1-1.2,8.3c-4.9,1.5-20.3,1.6-25.5-0.3
					c-3.8-1.4-5-5.1-3.5-6.7c1.9-1.9,4.4-0.6,5.1-6.2c0.9-7.5,1.2-28.7,0.1-34c-1-5.2-4.7-5.1-6.3-7.4c-6.1-8.4,17.9-13.1,25.8-13.1
					C634.5,389.1,631.7,392.1,631.2,433.5z"/>
				<linearGradient id="XMLID_123_" gradientUnits="userSpaceOnUse" x1="-93.0758" y1="423.606" x2="746.3648" y2="423.606">
					<stop  offset="0" style="stop-color:#CB9F3A"/>
					<stop  offset="0.5036" style="stop-color:#E9CF7F"/>
					<stop  offset="1" style="stop-color:#F6CC41"/>
				</linearGradient>
				<path id="XMLID_15_" class="st11" d="M668.8,391.6c-0.6,29.2-2.6,33.9,6.3,28.4c6.1-3.8,1.2-3.8,1.2-6.8c0-6.9,18.5-5.9,24-4
					c2.1,0.7,3.7,2.6,3.7,4.8c0,3-2.5,3.3-5,3.8c-2.8,0.5-9.1,4.5-9.1,6.1c0,1.5,10.6,15,12,16.7c3,3.7,4.2,4.7,7.3,6.4
					c2.4,1.3,3.6,2.8,3.6,4.4c0,7.5-11.8,5.3-24.5,5.6c-4.9-0.1-5-3.5-13-12.8c-2.2-2.8-3.5-4.4-4-5c-3.1-3.5-2.3,5.6-1.7,6.7
					c1.2,2.5,3.6,2.1,3.6,5.5c0,6.3-9.5,6.6-15.8,6.6c-11.6,0-13.9-0.5-15.8-2.9c-1.6-2.1-1.8-4.7,0.9-6.5c2.3-1.5,2.7-1.9,3.1-3.6
					c1.4-8.3,1.5-36.7,0.5-39.4c-1.2-3.3-6.9-0.4-6.9-5.2c0-3.4,4.4-5.2,7.6-6.4C652.1,392,669,385.9,668.8,391.6z"/>
			</g>
		</g>
		<g id="XMLID_16_">
			<linearGradient id="XMLID_124_" gradientUnits="userSpaceOnUse" x1="-93.0758" y1="269.6063" x2="746.3648" y2="269.6063">
				<stop  offset="0" style="stop-color:#CB9F3A"/>
				<stop  offset="0.5036" style="stop-color:#E9CF7F"/>
				<stop  offset="1" style="stop-color:#F6CC41"/>
			</linearGradient>
			<path id="XMLID_17_" class="st12" d="M106.1,188.8c0,7.4-3.7,10.6-10.8,14.9c-8.9,5.5-8.4,14-8.4,31.1c0,11,2.9,13.3,10,13.8
				c3.7,0.2,32.9,1.1,38.2-1.3c2.3-1,3.5-3.6,3.5-7.7c0-43.9-7.6-30.8-16.4-41.8c-5.3-6.6-0.6-19.9,13.8-23.4
				c17.8-4.3,87.1-9.9,87.1,15.9c0,5.6-2.9,9.8-8.7,12.6c-7.3,3.4-8.6,5.3-9.8,13.5c-0.4,2.7-6.1,108.6,2.4,117.1
				c4.9,4.9,14.2,5.2,14.2,14.6c0,27.7-76.3,21.5-90.9,15.5c-14.4-6-13.8-20.3-2.5-26.4c5.5-3,6.6-5,8.4-12.8
				c1.5-6.8,5.1-35.7-0.1-39.9c-4.7-3.8-38.9-2-45.6,0.7c-4.8,1.9-4.4,15.3-4.4,23.2c0,21.9,5.2,24.8,11.8,28.8
				c7.7,4.4,10.7,19.1-7.7,26.1C69.6,371,0,373.1,0,349.1c0-7.5,4.4-9.6,12.1-13.6c6.3-3.1,7.1-7.8,8-15.5
				c2.2-17.4,3.8-101.3-0.6-109.1c-4.7-8.3-17.6-7.1-17.6-17.4c0-9.5,9.2-16,27.5-19.7C51.6,169.4,106.1,166,106.1,188.8z"/>
			<g id="XMLID_18_">
				<linearGradient id="XMLID_125_" gradientUnits="userSpaceOnUse" x1="-93.0758" y1="297.5865" x2="746.3648" y2="297.5865">
					<stop  offset="0" style="stop-color:#CB9F3A"/>
					<stop  offset="0.5036" style="stop-color:#E9CF7F"/>
					<stop  offset="1" style="stop-color:#F6CC41"/>
				</linearGradient>
				<path id="XMLID_19_" class="st13" d="M416,326.9c0.4,7.5,1.2,8.8,10.4,18.6c3.7,4,3.9,15-9,19.3c-12.7,4.2-54.4,5.6-67,0.3
					c-5.5-2.3-8.3-6.1-8.3-11.4c0-13.4,12.1,3.7,12.1-50c0-22.1-3-36.1-18-36.1c-20.9,0-15.6,21.3-16.4,55.8
					c0,19.9,9.6,19.8,9.6,29.1c0,5.5-3.8,9.6-11.5,12.2c-13.8,4.7-75.1,9.9-75.1-12.2c0-4.4,0.9-5.8,6.9-10.1
					c6-4.4,5.6-9.4,6.5-23.1c0.4-5.8,2.3-40.6-0.5-46.3c-3.3-6.8-14.5-7.4-14.5-16.7c0-9.4,10.7-13.1,25.2-18.3
					c42.2-15,53.8-15.8,53,2.5c-0.6,4.8,0.6,8.7,5.5,8.7c8.3,0,10.8-22.8,42.3-22.8c22.4,0,37.6,11.9,42.7,24.8
					C412,257.2,413.9,290.4,416,326.9z"/>
				<linearGradient id="XMLID_126_" gradientUnits="userSpaceOnUse" x1="-93.0758" y1="222.6165" x2="746.3648" y2="222.6165">
					<stop  offset="0" style="stop-color:#CB9F3A"/>
					<stop  offset="0.5036" style="stop-color:#E9CF7F"/>
					<stop  offset="1" style="stop-color:#F6CC41"/>
				</linearGradient>
				<path id="XMLID_36_" class="st14" d="M442,201.3c0,2.7-8.7,7.2-8.7,14.9c0,3.8,4.8,4.3,8,9.9c2.6,4.6,2.5,12.4-2.4,17.5
					c-14.7,15.3-42.6-10.5-10.2-42.7C435.7,193.9,442,198.4,442,201.3z"/>
			</g>
			<linearGradient id="XMLID_127_" gradientUnits="userSpaceOnUse" x1="-93.0758" y1="269.8632" x2="746.3648" y2="269.8632">
				<stop  offset="0" style="stop-color:#CB9F3A"/>
				<stop  offset="0.5036" style="stop-color:#E9CF7F"/>
				<stop  offset="1" style="stop-color:#F6CC41"/>
			</linearGradient>
			<path id="XMLID_46_" class="st15" d="M585.7,345.2c-16.2,35.5-21.1,12.1-53.3-59.6c-5.4-12.5-12.4-10.5-12.9-1.3
				c-0.6,9.7-2.1,41.1,0.4,50.5c3.4,10.6,16,6,16,17.8c0,10.5-13.4,15.7-40.3,15.7c-22.7,0-34-5.1-34-15.3c0-11,13.3-8.1,17.1-16.7
				c4.5-10.2,9.9-109.5,2.7-126.1c-2-4.3-4-5.4-9-7.9c-11.8-5.7-12.1-14.9-6.3-21.4c9.7-10.7,55.7-12.7,69.4-7.3
				c6,2.3,7.8,6.1,11.8,13.6c47.4,86.7,35.6,85.6,70.8,18c13.8-28.1,16.5-34.4,49.6-34.4c26.5,0,39.8,6,39.8,18.1
				c0,13.1-12.8,9.1-16,26.7c-6,36.1-2.6,111.7,2.7,119c4.6,6.2,14.1,6.9,14.1,16.2c0,25.6-75.4,17.2-85.6,14.2
				c-14.2-4.2-14.7-14-11.2-18.5c6.1-7.8,11.6-5.8,13.7-19.3c1.2-7.5,2.2-37,0.3-43.4c-1.3-4.3-6.8-5.8-12,1.9
				C607.4,294.8,596.7,321,585.7,345.2z"/>
		</g>
	</g>
	<g id="XMLID_60_">
		<path id="XMLID_651_" class="st16" d="M420.3,23.3c-2.4-1.7-4.2-3.2-5.3-4.6c-2.6-3.2-14-8.1-17.6-10.1h-2.5
			c-0.6-0.6-1.4-1.1-2.6-1.6c-3.4,0-13.2,10.9-13.2,14.3c0,1.3,3.1,6,3.7,7.1c1,1.8,4.1,7,4.6,8.9l-4.8,29.1l0.6,3.3
			c-0.5,2.5-1.6,8-1.8,9.4c-0.1,1-0.8,10.2-1.1,11.2c-1.8,10.5-2,10.1-1.3,13.6c0.7,3.9,0.6,6.4-3.6,8.6c-4.8,2.5-6.9,4.2,2.9,9.3
			l0.4,5.3c-7.2,28,4.9,33.7,13.1,13.2c-4.8-6.3-3.5-8.6-3.1-16.9c0.7-11.8-0.6-4.5,9.9-10.4c20.8-9.5,23.3-9.4,29.2-15.7
			c4.4-3.6,13.4-6.5,13.4-29.8C441.1,41.2,423.8,28.6,420.3,23.3z M401.6,102.1c-3.6,2.1-10,5.9-10,1.7c0-7.1,2.8-19.6,4.5-26.5
			l-0.7-3.8c1.8-4,7.5-27.7,7.5-29.5c0-3.6-3.3-9.2-9.8-16.7c0-0.7,0.2-1.1,0.9-1.1c5,2.6,4.6,2.3,8.7,4.4
			c20.9,21.2,15.7,18.2,18.5,22.5c0.6,0.9,2.2,2.8,2.6,3.8l0.2,2.2C433.9,84.9,418.3,92.3,401.6,102.1z"/>
		<path id="XMLID_648_" class="st16" d="M462.7,62.4c5.7,0,5.1,1.8,10.2-2.1c4.6-3,5.5-6.2,7.5-14.7c0.5-2.3,1.6-5.4-0.1-7
			c-1.7-1.6-6.3-1-8.3,0.5c-1.3,1.6-2.4,3.1-3.3,4.4c-3.3,0.4-8.4,7.8-8.4,11.4C460.4,57.4,460.7,61.2,462.7,62.4z"/>
		<path id="XMLID_61_" class="st16" d="M694.7,109.8c-0.4-1.1-5.1,4.5-5.1,4.5c-2.4,3-6,3-8.1-3.8c-1.5-4.9-3.6-19.9-14.2-15.5
			c-4.8,1.9-9.2,5.7-11.4,8.9c-2,3.1-3.4,2.7-5.5,7.1c-1.7,1.7-4.3,4.2-5.3,6.2c-0.5,0.6-1,1.4-1.7,1.8c-1-1.4-0.4-3.3,0.2-4.9
			c2.4-6,4.8-14.9,5.8-19.2c1-4.3,2.5-10.4,0-14.1c-2.1-3-6.9-2.3-10-0.6c-3.4,1.9-5.1,4.6-9.7,10.3c-0.9,1.1-3.6,4.3-3.9,4.7
			c-0.7-13.6-9-15.6-14.7-13.6c-1.4,0.5-3.3,1.3-5.7,2.3l-0.5-0.8c0.6-1.4,1.2-2.8,1.7-4.2c-0.1-1.6-2.2-1.9-3.8-1.9
			c-2.3,0-4.1,1.1-5.8,2.7c-2.1,2.4-2.6,3.2-4.6,5.4c-1.8,1.8-2.6,2.3-4.5,4.3c-1.9,1.9-3.2,3.8-3.7,4.9c-2.4,2.3-7.7,7.4-9.5,9.9
			l-6.4,4.9c-0.6,1-2,3.3-2.7,4c0,0,0,0,0,0c-1.1,1.6-1.4,2.4-3.5,2.4c-2.5,0-3.8-3.2-4.6-5.6c-1-3.2-2-6.8-3.2-10.5
			c-0.9-2-2.1-3.4-3.4-4.3c-1.3-0.9-2.8-1.4-4.6-1.4c-0.9,0-1.9,0.2-3.1,0.7c-1.2,0.5-2.5,1.2-4,2c-2.1,1.5-4.3,3.2-6,5.1
			c-0.7,0.8-2,2.7-2.2,2.9c-1.9,1.6-3.6,3.7-4.7,5.9c-6.1,5.9-2.9,3.3-6.2,7.3c-0.2,0.3-0.5,0.5-0.8,0.7c-1.4-2.1,0.7-5.9,1.7-8.3
			c1.3-4.4,5.8-19.3,5.8-23.8c0-2.6-0.5-4.6-1.4-6c-0.9-1.4-2.4-2.1-4.4-2.1c-2,0-3.9,0.5-5.6,1.5c-1.8,1-3.4,2.5-5,4.5
			c0,0-16.9,20.9-16.9,20.9c-3.1,3.4-4.9,4.8-6.9,8c-1.6,1.5-3.1,3-5.1,3.8c-6,2.2-6.6-1-7.6-5.4c-2.7-11.9-3-19.5-6-21.9
			c-2.7-2.2-6.8-2.6-9,1.1c-3.8,6-11.7,11.7-15.7,17.7l-0.2,0.9l-0.5,0.6c-0.3,1.8-1.8,9.6,1,11.6c13.2-16,10.9-11.9,15.8-4.5
			c2,3,3,9.9,6,12.5c1.5,1.3,4.7,1.9,9.8,1.9c0.8,0,2-0.4,3.6-1.3c3.5-1.9,9.9-7.2,12.7-10c0.1,0,0.2,0,0.3,0c0,0,1.6-1.7,1.6-1.7
			l0-0.1c0.8-1,2.4-3,2.4-3s5.6-6.5,5.6-6.6c1.1-1.3,3.8-4.6,5.5-4.6c2.5,0,1.9,2.5,1,4.9c-1.5,4.7-4.8,18.2-7.4,26.4
			c0.5,4.9-0.1,7.6,4.1,7.6c4.8,0,6.3-2.5,9.8-6.4c2.9-3.3,9-10.1,11-13.9c0.4-0.8,1.1-1.5,2.2-2.1c4.4-2.5,6.6-7.2,11.8-9.1
			l0.8,0.3c1.3,1.9,4.1,6.1,5.6,7.8c2,4.4,5.6,14.4,13.9,10.5c1.9-0.9,4.8-3.8,6.5-5.4c0.8-0.8,2-2.2,2.8-3.3c0,0,0,0,0,0.1
			c0.5-0.6,1.5-2.5,1.7-2.7c0.5-0.4,5.8-5.3,6.5-5.3c0.9,0,1.4,0.6,1.4,1.5c0,0.2-1.8,7.5-1.8,10.1c0,7.1,5.8,14.2,12.4,14.2
			c0.9,0,3.1-0.7,3.6-0.7c2.2,0,4.9-1.2,6.9-2.3c7.9-3.7,11.1-9.2,14.5-13.8c1.4-1.1,2.5-2,2.7-2.2c0.8-0.8,2.3-4.4,2.8-4.8
			c0.3-0.2,1-0.8,1.9-1.8c1.5-1.7,5.6-6.7,7-7.8c1.1-0.9,2.5-1.6,3.5-0.7c0.6,0.5,0.4,1.7,0.3,2.5c-0.2,1.1-1,3.3-1.3,4.1
			c0,0-4.2,16.6-6.7,24.3c0.5,4.9-0.1,7.6,4.1,7.6c4,0,5.1-1.3,7.6-4.1c3-3.1,11.1-12.3,13.2-16.3c0.4-0.8,1.1-1.5,2.2-2.1
			c1.1-0.6,2.9-2.1,5.4-4.6c2.9-2.9,4.8-3.9,6.4-4.5l0.7,0.3c1.4,2.1,4,6,5.6,7.8c2.4,5.3,4.7,11.3,10.6,11.3c2.7,0,5-1.5,6.9-3.5
			c2.7-2.5,3.6-3.3,5.8-5.3c0,0,2.1-1.3,2.2-2.7C695.2,117.2,695.3,111.3,694.7,109.8z M595.3,126.7c-1.6,0-2.8-0.4-3.6-1.3
			c-1.6-1.8-1.2-4.9-0.7-7.2c0.3-1.3,0.7-3,1.3-4.9c0.6-2.1,1.2-3.8,1.8-4.9c1.4-2.6,1.6-1.2,4.1-2.7c2-1.1,3.3-4,4.6-6.3
			c0.5-0.9,1-1.6,1.5-2.2c0.5-0.6,0.9-0.9,1.2-1c6.6,0.9,6.7,0.5,8.6,7.6c-1.7,5.9-2,7.2-2,7.2C604,123.3,601.9,126.7,595.3,126.7z"
			/>
		<path id="XMLID_617_" class="st17" d="M553.1,25.7c0,0-1.8,2.9-4.6,2.9c-2.8,0-3.4-2.5-6.4-2.1c-6.7,0.9-2.5,12.8-14.7,7.2
			c-4.6-2.1-5.6,3.1-5.6,3.1l15.4,36c0,0,1-5.2,5.6-3.1c12.2,5.6,8.1-6.3,14.7-7.2c3.1-0.4,3.6,2.1,6.4,2.1c2.8,0,4.6-2.9,4.6-2.9
			L553.1,25.7z"/>
		<path id="XMLID_612_" class="st18" d="M565.9,12.9c0,0-1.8,2.9-4.6,2.9c-2.8,0-3.4-2.5-6.4-2.1c-6.7,0.9-2.5,12.8-14.7,7.1
			c-4.6-2.1-5.6,3.1-5.6,3.1L550,60c0,0,1-5.2,5.6-3.1c12.2,5.5,8.1-6.3,14.7-7.2c3.1-0.4,3.6,2.1,6.4,2.1c2.8,0,4.6-2.9,4.6-2.9
			L565.9,12.9z"/>
		<path id="XMLID_609_" class="st19" d="M576.2,0c0,0-1.8,2.9-4.6,2.9c-2.8,0-3.4-2.5-6.4-2.1c-6.7,0.9-2.5,12.7-14.7,7.2
			c-4.6-2.1-5.6,3.1-5.6,3.1l15.4,36c0,0,1-5.2,5.6-3.1c12.2,5.6,8.1-6.3,14.7-7.2c3.1-0.4,3.6,2.1,6.4,2.1c2.8,0,4.6-2.9,4.6-2.9
			L576.2,0z"/>
		<g id="XMLID_602_">
			<path id="XMLID_603_" class="st16" d="M689.8,70C689.8,90,720,90,720,70S689.8,50.1,689.8,70z M693.9,70c0-14.4,21.9-14.4,21.9,0
				C715.8,84.5,693.9,84.5,693.9,70z M704.8,63.1h-5.1v13.8h2.9v-3.8c0.4,0,2.3,0,2.6,0l2.8,3.9h3.6l-3.4-4.7
				C711.8,70,711.2,63.1,704.8,63.1z M702.6,70.2v-4.1c2.4,0,4.8-0.3,4.8,2C707.4,70.5,705,70.2,702.6,70.2z"/>
		</g>
	</g>
</g>
</svg>
